<?xml version="1.0" encoding="UTF-8"?>
<svg id="Layer_2" data-name="Layer 2" xmlns="http://www.w3.org/2000/svg" viewBox="0 0 154.74 160.52">
  <defs>
    <style>
      .cls-1 {
        fill: #8875e0;
        stroke: #8875e0;
        stroke-width: 11px;
      }

      .cls-1, .cls-2, .cls-3, .cls-4 {
        stroke-linecap: round;
        stroke-miterlimit: 10;
      }

      .cls-2 {
        stroke: #969eaf;
      }

      .cls-2, .cls-3, .cls-4 {
        fill: none;
        stroke-width: 12px;
      }

      .cls-3 {
        stroke: #666e7e;
      }

      .cls-4 {
        stroke: #e1e6ef;
      }
    </style>
  </defs>
  <g id="Layer_1-2" data-name="Layer 1">
    <path class="cls-4" d="M91.82,153.05c-4.67.96-9.5,1.46-14.46,1.46-2.15,0-4.28-.1-6.38-.28C34.56,151,6,120.41,6,83.15,6,43.73,37.95,11.78,77.37,11.78c10.97,0,21.37,2.48,30.66,6.9"/>
    <path class="cls-2" d="M141.96,113.55c-1.02,2.17-2.15,4.27-3.37,6.31-1.49,2.48-3.13,4.86-4.9,7.13s-3.75,4.52-5.83,6.59-4.27,4.02-6.59,5.83c-1.61,1.26-3.27,2.44-4.98,3.56"/>
    <path class="cls-3" d="M148.74,83.15s0,0,0,0"/>
    <path class="cls-1" d="M119.81,5.61c.58-.55,1.29,1.09,2.79,3.56,2.73,4.63,5.38,9.14,8.54,14.48,2.24,3.81,4.44,7.53,6.13,10.4,1.19,2.03,2.15,3.61,2.66,4.56.61,1.15.56,1.45-.59,1.4-7.28-.78-30.57-3.72-37.44-4.55-.76-.14-1.82-.17-1.31-1.05,2.19-2.55,6.97-6.41,9.77-9.06,3.45-3.01,4.63-4.36,5.66-8.02,1.3-3.76,2.14-8.54,3.74-11.68l.04-.04Z"/>
  </g>
</svg>
